<svg xmlns="http://www.w3.org/2000/svg" xmlns:xlink="http://www.w3.org/1999/xlink" width="1080" zoomAndPan="magnify" viewBox="0 0 810 809.999993" height="1080" preserveAspectRatio="xMidYMid meet" version="1.0"><defs><clipPath id="3b5fa8f4c2"><path d="M 41 144 L 769.5 144 L 769.5 582 L 41 582 Z M 41 144 " clip-rule="nonzero"/></clipPath></defs><g clip-path="url(#3b5fa8f4c2)"><path fill="#ffffff" d="M 754.820312 504.136719 C 760.003906 503.890625 763.875 500.234375 769.015625 500.394531 C 768.039062 498.546875 767.136719 498.851562 766.378906 498.648438 C 762.636719 497.6875 757.804688 498.839844 757.09375 491.953125 C 757.046875 491.5 756.351562 490.800781 755.941406 490.789062 C 752.390625 490.6875 749.667969 487.527344 745.984375 487.527344 C 740.6875 487.527344 735.984375 483.800781 730.699219 483.234375 C 729.941406 483.144531 729.082031 482.707031 729.183594 481.398438 C 729.8125 480.304688 730.640625 480.960938 731.398438 481.003906 C 737.089844 481.371094 742.796875 481.71875 748.445312 480.410156 C 750.117188 480.015625 752.59375 479.695312 752.609375 477.65625 C 752.621094 475.242188 750.644531 473.753906 748.34375 473.40625 C 745.257812 472.941406 742.183594 472.242188 739.113281 471.6875 C 737.207031 471.339844 735.300781 471.046875 733.929688 468.617188 C 736.96875 468.695312 740.949219 466.921875 745.867188 463.304688 C 743.496094 462.125 741.339844 460.640625 739.027344 459.96875 C 727.046875 456.503906 715.003906 453.390625 703.039062 449.851562 C 700.347656 449.050781 697.84375 447.21875 695.398438 445.558594 C 694.246094 444.769531 692.457031 443.285156 695.425781 442.136719 C 696.355469 441.773438 696.472656 440.738281 696.195312 439.734375 C 695.933594 438.800781 695.484375 437.578125 694.609375 437.929688 C 692.355469 438.847656 690.550781 436.34375 688.308594 437.113281 C 687.113281 437.519531 685.527344 437.246094 685.773438 435.191406 C 685.964844 433.546875 687.710938 432.832031 688.699219 433.429688 C 694.027344 436.664062 700.257812 434.988281 705.601562 437.972656 C 707.625 439.109375 710.261719 438.613281 712.253906 441.160156 C 708.121094 442.632812 704.917969 440.054688 701.496094 439.546875 C 700.519531 439.398438 699.398438 439.296875 699.078125 440.621094 C 698.746094 442.050781 699.53125 443.402344 700.652344 443.535156 C 706.605469 444.203125 712.09375 447.609375 718.164062 447.59375 C 721.6875 447.59375 725.210938 447.480469 728.542969 449.371094 C 730.074219 450.230469 732.300781 450.1875 733.203125 448.90625 C 735.488281 445.6875 738.285156 445.820312 741.472656 445.28125 C 734.078125 441.394531 726.738281 437.359375 719.285156 433.632812 C 711.292969 429.660156 702.851562 427.34375 694.4375 424.945312 C 691.625 424.144531 688.84375 423.253906 686.050781 422.367188 C 686.925781 420.867188 688.394531 420.664062 689.863281 420.503906 C 691.277344 420.34375 692.703125 420.285156 694.128906 420.183594 C 700.332031 421.625 706.519531 423.082031 712.109375 427.054688 C 713.246094 427.871094 715.617188 427.972656 715.894531 427.140625 C 716.460938 425.394531 716.390625 423.328125 717 421.40625 C 717.1875 420.792969 715.355469 420.125 714.261719 419.878906 C 709.675781 418.828125 705.09375 417.738281 700.535156 416.542969 C 699.980469 415.21875 698.46875 414.929688 697.214844 414.722656 C 691.667969 413.792969 687.726562 408.929688 682.820312 406.382812 C 681.421875 405.65625 680.109375 404.867188 678.714844 404.226562 C 679.382812 404.140625 680.140625 404.242188 680.851562 404.386719 C 684.316406 405.085938 687.753906 406.0625 691.246094 406.558594 C 694.085938 406.949219 696.824219 407.722656 699.589844 408.550781 C 700.652344 408.871094 702.003906 408.523438 702.324219 407.109375 C 702.777344 405.175781 701.21875 405.277344 700.246094 405.058594 C 698.628906 404.707031 697.59375 403.574219 696.792969 401.984375 C 695.761719 399.960938 694.1875 399.058594 692.308594 398.1875 C 687.929688 396.175781 683.300781 396.132812 678.816406 395 C 675.917969 394.269531 673.035156 393.5 670.152344 392.769531 C 671.230469 392.304688 672.308594 391.898438 673.445312 391.984375 C 680.695312 392.566406 687.914062 393.5 695.164062 394.257812 C 698.234375 394.578125 700.550781 395.433594 701.058594 399.917969 C 701.480469 403.644531 706.78125 405.710938 708.847656 403.179688 C 712.96875 398.097656 718.046875 397.574219 723.273438 399.089844 C 726.199219 399.933594 729.199219 399.730469 732.054688 400.75 C 732.722656 400.980469 733.4375 401.230469 733.859375 400.371094 C 734.265625 399.570312 733.917969 398.769531 733.390625 398.230469 C 731.820312 396.613281 731.367188 395.214844 733.699219 393.964844 C 734.25 393.671875 734.308594 392.84375 734.003906 392.277344 C 732.214844 388.914062 730.785156 384.71875 726.914062 384.34375 C 718.425781 383.511719 711.277344 378.066406 703.359375 375.273438 C 702.371094 374.921875 701.148438 374.167969 701.132812 372.230469 C 703.59375 372.519531 705.878906 372.695312 708.132812 373.089844 C 717.625 374.75 727.320312 375.011719 736.476562 378.796875 C 738.152344 379.480469 740.03125 380.296875 740.582031 377.921875 C 741.109375 375.695312 738.632812 376.480469 737.644531 375.636719 C 735.707031 374.019531 731.179688 374.820312 731.949219 371.296875 C 732.578125 368.417969 736.695312 369.609375 739.316406 369.988281 C 743.523438 370.601562 747.425781 375.402344 752.039062 371.125 C 752.535156 370.65625 753.847656 371.488281 754.792969 371.589844 C 755.636719 371.691406 756.714844 372.316406 757.179688 370.554688 C 756 369.449219 754.691406 368.722656 753.25 368.210938 C 748.253906 366.4375 746.800781 364.253906 746.539062 358.414062 C 746.480469 357.0625 746.582031 356 748.050781 357.003906 C 748.664062 357.425781 749.214844 358.878906 749.929688 357.453125 C 750.277344 356.769531 750.222656 355.488281 749.914062 354.71875 C 748.984375 352.386719 747.542969 350.65625 745.621094 349.171875 C 742.183594 346.519531 737.773438 346.839844 734.558594 343.59375 C 733.4375 342.472656 732.109375 341.644531 733.246094 339.867188 C 734.179688 338.398438 735.460938 339.054688 736.40625 340.1875 C 739.59375 343.972656 742.070312 340.871094 744.644531 338.996094 C 745.460938 338.398438 745.519531 337.351562 745.023438 336.449219 C 744.5 335.488281 743.960938 336.054688 743.351562 336.519531 C 741.339844 338.078125 741.472656 335.75 741.109375 334.628906 C 739.898438 331.003906 737.175781 328.003906 734.511719 328.511719 C 731.238281 329.152344 728.878906 328.324219 726.070312 326.984375 C 724.496094 326.226562 722.75 326.242188 722.882812 323.722656 C 723.042969 320.828125 725.023438 321.976562 726.347656 321.976562 C 728.441406 321.976562 729.433594 320.097656 730.582031 318.628906 C 731.367188 317.625 730.683594 316.503906 729.957031 315.703125 C 725.96875 311.25 722.621094 306.472656 719.621094 300.808594 C 716.140625 294.246094 710.230469 289.308594 705.601562 283.398438 C 705.195312 282.890625 704.421875 282.554688 703.796875 282.527344 C 693.707031 281.914062 684.40625 277.097656 674.578125 275.070312 C 673.589844 274.867188 672.367188 274.941406 671.769531 273.472656 C 676.328125 271.257812 670.953125 269.816406 671.636719 267.398438 C 673.472656 268.507812 675.453125 268.1875 677.445312 268.039062 C 678.625 267.953125 680.386719 267.96875 680.636719 269.4375 C 681.289062 273.5 683.882812 272.144531 685.757812 272.191406 C 688.730469 272.261719 691.945312 270.863281 694.625 271.796875 C 698.6875 273.238281 702.007812 270.851562 705.644531 270.414062 C 706.648438 270.296875 708.382812 269.453125 707.550781 268.1875 C 706.226562 266.175781 704.597656 263.367188 702.3125 263.511719 C 697.785156 263.820312 693.535156 261.984375 689.019531 262.101562 C 684.289062 262.230469 680.359375 258.199219 680.15625 253.964844 C 684.582031 254.9375 688.816406 258.300781 693.476562 255.347656 C 694.4375 254.734375 696.371094 256.046875 696.519531 253.992188 C 696.707031 251.371094 695.046875 252.683594 693.957031 252.8125 C 693.214844 252.902344 693.535156 251.984375 693.375 251.722656 C 691.65625 248.910156 690.636719 245.652344 687.941406 243.496094 C 685.351562 241.429688 683.140625 239.84375 679.847656 240.542969 C 678.496094 240.832031 676.863281 239.203125 676.761719 237.351562 C 676.660156 235.316406 678.480469 236.070312 679.28125 236.175781 C 687.726562 237.164062 696.140625 238.5625 704.582031 239.390625 C 713.359375 240.25 722.253906 244.238281 731.367188 238.3125 C 724.234375 234.632812 717.699219 230.21875 710.144531 228.777344 C 708.148438 228.398438 706.109375 228.167969 704.160156 227.554688 C 691.613281 223.667969 678.832031 221.179688 666.046875 218.75 C 655.757812 216.796875 645.421875 215.125 635.128906 213.160156 C 633.863281 212.910156 631.824219 212.824219 631.808594 210.480469 C 631.808594 208.398438 632.710938 206.871094 634.867188 206.914062 C 635.855469 206.941406 637.441406 207.320312 637.589844 205.660156 C 637.761719 203.609375 635.914062 203.855469 634.867188 203.59375 C 628.15625 201.890625 622.519531 196.695312 615.054688 196.039062 C 618.414062 192.996094 622.214844 194.101562 625.039062 191.421875 C 617.601562 191.582031 611.601562 186.269531 604.71875 184.550781 C 603.1875 184.175781 601.5 184.886719 600.117188 183.226562 C 597.335938 179.878906 593.625 178.875 589.867188 178.308594 C 586.460938 177.796875 583.972656 176.195312 583.289062 171.902344 C 582.996094 170.113281 581.730469 169.601562 580.625 168.65625 C 574.625 163.558594 567.535156 162.367188 560.695312 160.140625 C 551.507812 157.15625 542.03125 156.5 532.714844 154.664062 C 523.367188 152.832031 514.066406 150.777344 504.648438 149.425781 C 499.886719 148.742188 495.023438 149.992188 490.453125 148.726562 C 484.425781 147.039062 478.355469 147.53125 472.328125 146.847656 C 464.367188 145.945312 456.359375 145.597656 448.367188 145.160156 C 446.125 145.042969 443.230469 142.945312 442.3125 147.96875 C 442.09375 149.164062 439.53125 149.644531 437.957031 148.535156 C 436.515625 147.519531 435.164062 146.308594 433.621094 145.070312 C 433.371094 149.65625 430.550781 148.523438 428.453125 148.421875 C 397.953125 146.933594 367.484375 148.273438 337.015625 149.367188 C 334.585938 149.453125 331.921875 149.542969 329.957031 152.699219 C 331.511719 152.816406 332.707031 153.0625 333.902344 152.992188 C 345.824219 152.292969 357.730469 151.796875 369.683594 151.636719 C 375.257812 151.566406 380.847656 152.046875 386.425781 151.988281 C 389.480469 151.957031 392.785156 150.605469 395.886719 152.058594 C 396.832031 152.511719 398.433594 152.335938 398.40625 153.953125 C 398.363281 155.566406 396.820312 155.464844 395.8125 155.640625 C 387.195312 157.199219 378.503906 156.90625 369.84375 157.226562 C 357.367188 157.679688 344.890625 158.117188 332.445312 159.148438 C 322.066406 160.007812 311.714844 161.304688 301.292969 161.144531 C 298.160156 161.101562 294.855469 159.820312 291.347656 161.769531 C 292.921875 163.007812 294.566406 160.925781 295.4375 163.109375 C 293.503906 164.1875 291.507812 164.433594 289.46875 164.652344 C 280.269531 165.613281 271.054688 164.871094 261.855469 164.898438 C 257.3125 164.914062 252.1875 167.359375 248.214844 162.324219 C 247.980469 162.015625 247.179688 162.351562 246.640625 162.335938 C 242.785156 162.265625 239.085938 166.75 235.066406 162.949219 C 234.894531 162.789062 234.078125 163.109375 234.003906 163.355469 C 232.957031 167.460938 229.972656 165.816406 227.863281 165.976562 C 223.554688 166.28125 219.199219 165.816406 214.875 165.917969 C 193.839844 166.414062 173.125 171.800781 152.058594 171.683594 C 150.546875 171.683594 150.691406 172.6875 150.460938 173.75 C 149.847656 176.558594 149.832031 176.53125 147.664062 175.949219 C 146.964844 175.757812 146.105469 175.976562 145.929688 176.792969 C 145.347656 179.355469 143.574219 178.949219 142.03125 179.3125 C 137.648438 180.34375 133.296875 181.671875 128.882812 182.441406 C 126.117188 182.921875 125.726562 186.851562 123.074219 187.214844 C 119.042969 187.769531 115.011719 188.382812 110.992188 188.992188 C 109.332031 189.238281 106.421875 188.308594 106.378906 190.332031 C 106.335938 192.339844 109.070312 193.59375 111.082031 194.261719 C 111.3125 194.335938 111.632812 194.085938 111.882812 194.144531 C 114.238281 194.726562 116.4375 195.703125 118.824219 197.480469 C 112.972656 201.207031 106.84375 202.285156 101.296875 205.3125 C 98.023438 207.101562 98.09375 209.957031 97.746094 212.722656 C 97.367188 215.707031 99.476562 216.304688 101.617188 217.105469 C 103.554688 217.832031 105.925781 219.8125 105.621094 222.433594 C 105.332031 224.949219 103.132812 226.480469 100.671875 226.507812 C 98.910156 226.535156 97.148438 226.535156 95.386719 226.582031 C 94.585938 226.59375 93.597656 226.535156 93.292969 227.601562 C 92.957031 228.824219 93.945312 229.390625 94.660156 229.566406 C 99.464844 230.730469 102.988281 235.679688 108.140625 235.910156 C 108.984375 235.957031 110.351562 236.203125 110.660156 237.890625 C 109.378906 239.871094 105.300781 237.703125 105.855469 242.199219 C 106.203125 244.996094 104.953125 245.535156 103.089844 245.621094 C 98.3125 245.855469 93.988281 248.433594 89.316406 249.21875 C 88.195312 249.40625 86.316406 250.324219 87.832031 251.941406 C 90.875 255.171875 88.035156 255.945312 86.523438 257.019531 C 83.523438 259.160156 79.941406 258.8125 76.667969 259.832031 C 75.371094 260.238281 73.695312 260.019531 73.085938 261.664062 C 71.644531 265.492188 68.820312 265.160156 66.140625 265.128906 C 63.027344 265.101562 59.894531 264.734375 56.78125 264.75 C 55.410156 264.75 53.738281 264.328125 52.777344 266.601562 C 55.703125 268.535156 58.660156 266.976562 61.527344 267.023438 C 64.757812 267.078125 66.113281 269.453125 66.652344 272.683594 C 67.261719 276.351562 64.933594 276.671875 62.71875 277.34375 C 56.066406 279.367188 50.769531 285.582031 43.519531 286.019531 C 42.542969 286.078125 41.042969 287.273438 41.363281 289.019531 C 41.640625 290.546875 43.109375 290.414062 44.128906 290.445312 C 48.46875 290.574219 52.820312 290.78125 57.160156 290.5625 C 64.25 290.199219 70.960938 292.613281 77.816406 294.039062 C 79.621094 294.417969 80.335938 295.742188 80.464844 297.695312 C 80.609375 299.777344 79.300781 300.285156 78.003906 300.941406 C 75.5 302.222656 72.925781 303.125 70.230469 303.765625 C 67.203125 304.492188 64.042969 304.914062 61.367188 306.953125 C 60.738281 307.433594 59.851562 308.015625 60.085938 309.179688 C 60.257812 310.070312 61.03125 310.214844 61.699219 310.359375 C 65.28125 311.144531 68.804688 312.265625 72.546875 311.902344 C 76.898438 311.496094 81.703125 309.414062 84.773438 315.558594 C 85.167969 316.359375 86.433594 316.5625 87.292969 317.027344 C 88.035156 317.433594 88.980469 317.785156 89.097656 318.804688 C 89.78125 325.222656 93.699219 324.945312 97.601562 324.570312 C 99.828125 324.351562 101.441406 324.613281 102.140625 327.785156 C 102.769531 330.59375 104.953125 331.410156 107.339844 331.394531 C 110.585938 331.367188 113.773438 331.644531 116.902344 333.070312 C 119.074219 334.058594 119.902344 334.949219 117.632812 336.769531 C 116.394531 337.757812 115.59375 338.980469 115.667969 340.699219 C 115.8125 344.308594 117.804688 348.152344 114.515625 351.3125 C 114.339844 351.472656 114.980469 353.027344 115.402344 353.800781 C 118.417969 359.199219 117.425781 362.929688 112.785156 366.683594 C 108.984375 369.753906 104.574219 368.460938 100.65625 370.132812 C 99.636719 370.570312 97.863281 370.585938 98.269531 372.652344 C 98.589844 374.222656 100.058594 373.800781 101.078125 373.832031 C 106.085938 374.007812 111.082031 374.820312 116.089844 374.007812 C 116.875 373.875 118.023438 373.628906 118.199219 374.761719 C 118.476562 376.464844 117.078125 376.101562 116.234375 376.351562 C 115.710938 376.496094 115.140625 376.523438 114.648438 376.785156 C 113.351562 377.472656 110.992188 377.5 111.269531 379.464844 C 111.589844 381.765625 113.730469 380.382812 115.097656 380.441406 C 115.636719 380.46875 116.21875 380.089844 116.714844 380.238281 C 119.609375 381.097656 122.582031 378.636719 125.753906 380.03125 C 125.054688 381.691406 124.050781 381.824219 123.234375 382.304688 C 122.363281 382.8125 120.71875 382.480469 120.980469 384.402344 C 121.199219 385.988281 122.539062 386.015625 123.601562 386.105469 C 125.550781 386.25 127.515625 386.277344 129.46875 386.351562 C 123.820312 389.816406 118.140625 392.464844 111.996094 393.804688 C 109.289062 394.402344 104.617188 393.847656 104.414062 397.035156 C 104.222656 399.933594 108.96875 400.542969 111.574219 401.957031 C 112.84375 402.640625 113.875 403.472656 114.691406 404.402344 C 114.269531 404.707031 113.859375 405.015625 113.484375 405.40625 C 112.246094 406.730469 112.203125 409.382812 113.65625 411.027344 C 115.128906 412.699219 114.835938 413.53125 113.207031 414.550781 C 111.792969 415.4375 111.371094 417.273438 110.832031 418.902344 C 110.003906 421.40625 109.652344 424.171875 106.875 425.058594 C 105.695312 425.4375 105.796875 426.777344 106.609375 427.769531 C 109.449219 431.160156 110.339844 437.40625 115.988281 436.75 C 116.203125 436.722656 116.480469 437.433594 116.832031 437.957031 C 113.597656 440.871094 109.273438 437.726562 106.175781 440.753906 C 106.042969 440.882812 105.664062 440.652344 105.386719 440.578125 C 102.855469 439.878906 100.757812 441.132812 99.128906 443.113281 C 96.144531 446.765625 92.652344 448.714844 88.355469 448.921875 C 87.570312 448.949219 85.96875 447.726562 85.925781 450.15625 C 85.894531 451.90625 86.8125 452.707031 88.035156 453.289062 C 90.410156 454.421875 92.546875 453.171875 94.730469 452.414062 C 97.441406 451.480469 100.03125 451.191406 102.460938 453.417969 C 103.976562 454.800781 103.960938 455.601562 102.214844 456.839844 C 97.992188 459.824219 93.421875 460.886719 88.601562 460.960938 C 87.730469 460.960938 86.464844 460.378906 86.332031 462.035156 C 86.230469 463.359375 87.367188 463.957031 88.253906 464.148438 C 89.289062 464.367188 90.394531 464.21875 91.457031 464.03125 C 95.417969 463.375 99.113281 461.601562 102.550781 459.402344 C 106.335938 456.984375 109.753906 456.914062 113.378906 459.488281 C 113.933594 459.882812 114.835938 459.851562 114.675781 460.914062 C 114.546875 461.816406 113.773438 461.992188 113.089844 462.125 C 110.820312 462.53125 108.519531 462.867188 106.261719 463.375 C 105.199219 463.625 104.035156 464.207031 104.050781 465.761719 C 104.050781 467.683594 105.316406 467.511719 106.421875 467.304688 C 107.410156 467.132812 108.359375 467.175781 109.058594 468.105469 C 109.652344 468.878906 110.003906 470.246094 108.882812 470.277344 C 106.292969 470.363281 104.238281 473.273438 101.441406 472.039062 C 100.714844 471.71875 99.375 471.46875 99.203125 472.34375 C 98.082031 478.296875 93.667969 478.761719 89.914062 480.671875 C 93.1875 480.84375 96.742188 482.722656 99.59375 479.871094 C 103.65625 475.792969 108.546875 475.835938 113.105469 476.027344 C 116.21875 476.15625 119.683594 474.644531 123.804688 477.292969 C 116.597656 478.066406 111.371094 481.339844 105.941406 484.890625 C 108.125 486.871094 110.222656 482.679688 111.96875 486.261719 C 113.699219 489.839844 110.324219 489.566406 109.042969 491.851562 C 112.929688 490.539062 116.160156 489.332031 119.042969 492.503906 C 119.667969 493.203125 121.140625 492.941406 120.949219 494.515625 C 120.761719 496.144531 119.523438 495.898438 118.492188 496.304688 C 115.8125 497.367188 113.003906 495.113281 110.207031 496.742188 C 111.503906 498.882812 114.078125 498.199219 115.1875 501.09375 C 113.613281 500.847656 112.59375 501.472656 111.691406 502.449219 C 110.949219 503.25 109.042969 503.105469 109.421875 504.648438 C 109.914062 506.671875 111.460938 505.289062 112.550781 505.082031 C 116.308594 504.398438 120.035156 503.554688 123.789062 502.945312 C 125.128906 502.726562 126.628906 502.929688 127.386719 504.558594 C 127.996094 505.882812 128.128906 507.5 126.917969 508.433594 C 125.652344 509.40625 125.273438 510.382812 126.03125 511.925781 C 126.847656 510.296875 129.234375 511.898438 129.613281 509.742188 C 130.574219 504.3125 132.816406 506.25 134.96875 507.953125 C 132.597656 510.238281 131.039062 513.992188 127.285156 513.875 C 129.640625 514.285156 131.8125 514.589844 133.890625 514.242188 C 137.851562 513.585938 137.824219 513.425781 139.175781 516.148438 C 136.003906 516.539062 132.902344 517.386719 129.84375 517.167969 C 126.046875 516.890625 125.957031 520.355469 124.472656 522.683594 C 133.25 525.769531 141.316406 521.023438 150.125 520.484375 C 148.683594 522.945312 147.097656 522.667969 145.683594 522.917969 C 144.621094 523.105469 143.210938 522.945312 143.542969 524.882812 C 143.894531 526.847656 145.335938 526.789062 146.46875 526.0625 C 149.644531 524.039062 152.976562 527.734375 156.152344 525.550781 C 156.457031 525.347656 157.59375 526.335938 157.519531 527.664062 C 155.800781 528.476562 154.097656 529.597656 152.132812 529.175781 C 148.128906 528.332031 150.621094 533.675781 148.421875 534.503906 C 149.28125 536.179688 150.675781 535.886719 152.003906 535.886719 C 152.671875 535.886719 153.355469 535.785156 154.027344 535.667969 C 161.1875 534.488281 168.320312 536.28125 175.484375 535.667969 C 171.945312 537.882812 168.21875 536.019531 164.667969 536.804688 C 163.589844 537.039062 161.480469 536.121094 161.683594 538.726562 C 161.84375 540.792969 163.402344 540.734375 164.855469 540.648438 C 168.410156 540.445312 171.988281 539.789062 175.554688 541.433594 C 168.21875 539.820312 162.308594 546.371094 155.234375 546.035156 C 151.753906 545.875 148.261719 545.511719 144.972656 547.535156 C 144.199219 548.015625 143.09375 547.695312 142.160156 547.898438 C 141.242188 548.101562 139.628906 547.460938 139.976562 549.644531 C 140.226562 551.21875 141.433594 550.722656 142.335938 550.621094 C 145.84375 550.210938 149.351562 549.71875 152.859375 549.355469 C 158.960938 548.726562 165.058594 549.105469 171.160156 549.484375 C 172.046875 549.542969 174.042969 549.035156 173.445312 551 C 172.367188 554.609375 174.492188 559.515625 170.011719 561.976562 C 175.019531 562.71875 179.921875 560.359375 184.785156 563.402344 C 182.820312 564.40625 180.882812 562.730469 178.699219 565.613281 C 200.042969 563.503906 220 567.625 239.1875 572.28125 C 220.496094 572.371094 201.164062 574.539062 181.523438 574.132812 C 181.960938 575.878906 182.53125 575.863281 183.039062 575.863281 C 192.238281 575.863281 201.46875 576.285156 210.65625 575.746094 C 222.5625 575.0625 234.484375 575.820312 246.378906 574.65625 C 258.433594 573.476562 270.5 574.683594 282.539062 575.148438 C 305.078125 576.023438 327.613281 576.578125 350.148438 575.90625 C 361.648438 575.570312 373.164062 574.234375 384.648438 574.554688 C 393.46875 574.800781 402.25 574.816406 410.96875 573.5625 C 416.660156 572.746094 422.382812 572.414062 427.988281 573.183594 C 433.925781 574.015625 439.96875 574.335938 445.789062 574.042969 C 451.65625 573.753906 457.234375 576.824219 463.1875 575.164062 C 464.335938 574.84375 465.96875 573.679688 467.4375 574.394531 C 472.855469 577.011719 478.691406 576.300781 484.296875 577.40625 C 492.507812 579.023438 500.804688 580.011719 509.074219 581.046875 C 510.617188 581.234375 512.566406 581.335938 514.253906 578.441406 C 503.789062 578.28125 494.3125 574.988281 484.46875 574.742188 C 493.191406 574.554688 501.867188 574.246094 510.515625 574.742188 C 526.992188 575.660156 543.457031 576.867188 559.921875 578.265625 C 569.109375 579.050781 578.351562 577.59375 587.511719 579.984375 C 595.820312 582.152344 604.25 579.824219 612.636719 579.851562 C 613.363281 579.851562 614.046875 579.707031 614.367188 578.890625 C 615.855469 575.148438 618.679688 575.804688 621.09375 576.445312 C 629.871094 578.773438 638.882812 578.980469 647.765625 580.390625 C 652.246094 581.105469 656.992188 579.53125 661.476562 577.304688 C 661.054688 576.691406 660.925781 576.371094 660.707031 576.242188 C 659.992188 575.789062 659.234375 575.046875 658.492188 575.0625 C 651.15625 575.25 649.671875 570.59375 650.0625 562.835938 C 650.328125 557.476562 650.007812 556.617188 654.796875 556.808594 C 658.390625 556.953125 661.972656 557.621094 665.566406 558.042969 C 662.539062 555.570312 659.074219 556.226562 655.859375 555.324219 C 664.082031 554.011719 672.277344 554.683594 680.460938 555.046875 C 682.03125 555.117188 683.691406 555.46875 685.0625 553.851562 C 687.667969 550.738281 690.972656 550.359375 694.027344 552.121094 C 696.503906 553.546875 699.078125 551.058594 701.277344 553.125 C 700.695312 550.15625 705.367188 551.042969 704.175781 547.492188 C 703.5625 545.671875 704.742188 545.234375 705.980469 545.453125 C 707.042969 545.625 708.425781 546.355469 708.601562 544.535156 C 708.746094 543.078125 707.496094 542.191406 706.359375 541.476562 C 704.234375 540.152344 702.09375 541.695312 700.011719 541.257812 C 697.785156 540.777344 695.71875 539.890625 696.242188 536.382812 C 696.621094 533.820312 696.402344 530.167969 699.605469 530.53125 C 702.222656 530.835938 704.902344 531.300781 707.550781 532.117188 C 711.222656 533.253906 714.640625 536.003906 718.675781 535.4375 C 718.847656 534.214844 717.203125 534.214844 717.917969 532.464844 C 723.59375 535 729.695312 535.1875 735.707031 535.902344 C 737.335938 536.089844 738.835938 535.929688 740.613281 535.144531 C 743.597656 533.820312 745.359375 528.464844 749.566406 530.9375 C 749.683594 531.011719 750.234375 530.414062 750.367188 530.035156 C 750.597656 529.367188 750.335938 528.753906 749.742188 528.523438 C 748.589844 528.054688 747.382812 527.226562 746.246094 527.328125 C 741.5 527.734375 738.371094 525.539062 736.785156 519.800781 C 741.851562 519.671875 744.921875 512.988281 750.46875 514.707031 C 751.050781 514.882812 751.648438 513.992188 751.648438 513.0625 C 751.648438 512.113281 751.109375 511.605469 750.441406 511.359375 C 747.992188 510.410156 745.589844 509.4375 742.984375 509 C 740.25 508.535156 737.164062 508.636719 735.242188 505.128906 C 744.5 507.105469 753.832031 507.296875 763.933594 508.273438 C 761.109375 505.199219 757.601562 506.890625 754.953125 504.09375 Z M 348.734375 166.601562 C 344.90625 168.539062 303.910156 167.300781 298 165.191406 C 314.929688 164.785156 331.847656 165.4375 348.734375 166.601562 Z M 348.734375 166.601562 " fill-opacity="1" fill-rule="nonzero"/></g><path fill="#ffffff" d="M 304.960938 582.808594 C 353.683594 585.601562 402.4375 585.019531 451.21875 584.714844 C 402.511719 582.269531 353.714844 584.351562 304.960938 582.808594 Z M 304.960938 582.808594 " fill-opacity="1" fill-rule="nonzero"/></svg>